<?xml version="1.0" encoding="UTF-8" standalone="no"?>
<svg
   id="Capa_1"
   data-name="Capa 1"
   viewBox="0 0 609.76 528.13"
   version="1.1"
   sodipodi:docname="Mesa de trabajo 14.svg"
   inkscape:version="1.3.2 (091e20e, 2023-11-25, custom)"
   xmlns:inkscape="http://www.inkscape.org/namespaces/inkscape"
   xmlns:sodipodi="http://sodipodi.sourceforge.net/DTD/sodipodi-0.dtd"
   xmlns="http://www.w3.org/2000/svg"
   xmlns:svg="http://www.w3.org/2000/svg">
  <sodipodi:namedview
     id="namedview1"
     pagecolor="#505050"
     bordercolor="#eeeeee"
     borderopacity="1"
     inkscape:showpageshadow="0"
     inkscape:pageopacity="0"
     inkscape:pagecheckerboard="0"
     inkscape:deskcolor="#505050"
     inkscape:zoom="1.5545415"
     inkscape:cx="304.59142"
     inkscape:cy="264.065"
     inkscape:window-width="1920"
     inkscape:window-height="1017"
     inkscape:window-x="-8"
     inkscape:window-y="-8"
     inkscape:window-maximized="1"
     inkscape:current-layer="Capa_1" />
  <defs
     id="defs1">
    <style
       id="style1">
      .cls-1 {
        fill: #649760;
        stroke-width: 0px;
      }
    </style>
  </defs>
  <path
     class="cls-1"
     d="M62.31,1.55c3.23-.36,13.42-1.39,29.96.13,5.51.5,16.9,1.76,34.89,6.11,25.01,6.05,43.56,13.42,56.7,18.7,16.44,6.61,28.82,12.6,37.06,16.62,4.02,1.96,15.89,7.79,31.94,16.66,6.26,3.46,28.6,15.93,57.18,34.8,13.31,8.79,34.55,22.89,59.89,43.1,8.65,6.9,17.2,14.06,29.8,24.6,13.53,11.32,20.47,17.14,29.02,24.75,14.53,12.95,24.98,23.3,32.01,30.29,10.48,10.41,28.75,28.66,50.56,54.44,7.79,9.21,19.48,23.08,33.54,42.55,19.53,27.05,30.88,47.23,36.31,57.36,3.51,6.54,6.22,12.01,8.67,17.3,3.81,8.24,9.46,20.58,14.13,37.15,2.75,9.76,3.87,16.41,4.33,19.39.42,2.76,1.45,9.93,1.47,17.64.01,4.17-.28,7.43-.35,8.25-.28,3.11-.67,5.41-.78,6.08-.56,3.25-1.2,5.68-1.38,6.35-1.35,5.01-3.01,8.66-3.41,9.52-2.4,5.19-5.05,8.82-6.17,10.28-1.24,1.62-6.37,8.12-15.59,13.7-3.5,2.12-8.11,4.42-15.18,6.55-17.06,5.15-32.08,4.41-43.05,3.78-13.99-.81-24.81-3.12-33.04-4.88-4.94-1.06-10.88-2.48-19.01-4.81-9.08-2.6-32.36-9.64-63.63-23.62-10.76-4.81-24.52-11.36-40.2-19.9-16.98-9.21-37.98-21.29-61.42-36.47-13.16-8.52-45.1-29.68-84.34-61.66-25.55-21.04-45.96-39.67-61.15-54.2-18.23-17.44-30.83-30.78-35.73-36.02-11.03-11.81-20.25-22.48-22.07-24.59-1.47-1.71-3.51-4.07-6.21-7.29-2.26-2.7-15.14-18.59-15.14-18.59h0c-3.1-3.93-5.83-7.48-8.16-10.57,0,0-3.73-4.94-7.1-9.58-.58-.8-1.24-1.71-1.24-1.71-1.66-2.3-3.03-4.21-3.58-4.98-2.22-3.12-4.41-6.34-5.84-8.44-2.95-4.34-5.33-7.84-8.38-12.62-.19-.3-1.88-2.96-3.84-6.15-4.36-7.08-10.08-16.43-16.61-29.16-2.97-5.79-6.79-13.29-11.07-23.64-3.04-7.36-7.1-17.43-10.58-31.11-2.43-9.56-3.25-15.75-3.64-19.28-.43-3.97-1.2-11.08-.6-18.78.54-6.88,1.87-23.82,14.42-37.73,8.35-9.25,17.99-13.09,23.4-15.24,8.73-3.48,15.88-4.28,23.23-5.11ZM243.3,233.47s54.63.15,82.36.22c2.02.08,3.88.43,5.55.94,0,0,4.23,1.31,7.93,4.41,4.5,3.77,99.47,93.73,228.99,216.91.48-1.36,1.02-3.05,1.54-5.02.24-.88.83-3.17,1.36-6.23,0,0,.96-5.52,1.16-11.42.17-5.18-.13-15.88-3.04-29.95-2.71-13.13-6.38-22.86-9.05-29.85-1.19-3.11-3.17-8.11-6.22-14.73-10.74-23.33-24.43-44.48-26.69-47.94-7.42-11.4-25.58-38.28-54.32-70.34-17.62-19.65-32.22-33.43-41.06-41.76-5.01-4.72-25.72-24.06-55.32-47.38-6.17-4.86-11.41-8.85-15.22-11.72,6.04,8.77,10.01,16.69,12.61,22.67,2.65,6.11,4.39,11.78,5.26,14.59.25.79.49,1.73.98,3.62,1.29,4.94,1.48,6.47,1.14,8.15-.3,1.43-.88,2.41-1.06,2.69-.25.4-.71,1.12-1.55,1.8-1.04.83-2.06,1.12-2.66,1.28-1.42.38-2.67.3-3.5.17-12.34-.16-24.69-.32-37.03-.47-.41-7.81-1.91-19.57-7.24-32.75-2.91-7.2-9.27-22.41-24.7-35.82-4.55-3.95-20.66-17.58-44.79-20.32-1.47-.17-5.88-.62-11.72-.42-21.5.75-36.87,9.58-43.98,13.77-13.47,7.95-21.73,16.92-26.46,22.15-2.37,2.62-10.68,12.02-18.41,26.44-7.1,13.26-10.25,24.3-10.91,26.67-1.1,3.97-5.84,21.85-3.66,45.92,1.14,12.57,3.3,33.68,17.33,55.4,9.68,14.99,20.79,23.72,27.79,29.13,0,0,18.6,14.33,36.16,18.93,8.05,2.11,14.3,2.54,19.32,2.85,10.45.66,32.77,1.79,54.43-10.01,10.79-5.88,15.8-11.91,17.58-14.2,5.16-6.66,7.17-12.92,7.71-14.72.77-2.55,2.38-8.79,1.65-16.7-.3-3.22-.9-5.81-1.33-7.42-1.52-5.6-3.88-9.88-5.69-12.62-1.59-2.42-6.36-9.15-15.18-14.18-4.8-2.74-8.78-3.82-12.65-4.88-8.64-2.35-17.62-2.33-28.07-2.36-10.15-.03-17.76-7.14-19.34-15.49ZM188.18,338.28c3.43,3.2,7.43,6.87,11.92,10.89,2.02,1.81,5.98,5.33,11.1,9.75,7.3,6.29,13.01,10.99,15.29,12.86,1.42,1.16,5.32,4.35,10.46,8.42.83.65,2.94,2.33,5.42,4.25,13.59,10.57,25.22,18.83,28.51,21.16,0,0,2.4,1.69,4.76,3.33,28.13,19.56,54.83,34.54,54.83,34.54,13.92,7.81,34.46,19.24,63,30.69,9.21,3.69,19.91,7.95,34.73,12.33,34.9,10.31,58.1,11.08,65.26,11.19,0,0,20.63.15,36.63-5.26,2.93-.99,5.66-2.19,5.66-2.19,2.54-1.12,4.63-2.22,6.18-3.1-62.39-60.42-124.78-120.84-187.18-181.26-6.58,8.58-13.27,14.9-18.63,19.33-2.85,2.35-11.7,9.44-24.86,15.82-2.17,1.05-8.79,4.18-17.9,7.07-5.92,1.88-14.28,4.09-24.49,5.4-12.86,1.65-22.82,1.11-26.11.89-7.53-.5-17.53-1.84-28.91-5.28-9.36-3.82-13.27-5.41-14.9-6.07-.12-.05-3.11-1.26-3.11-1.26-1.7-.71-3.19-1.38-4.43-1.96-1.08-.52-2.15-1.04-3.23-1.55ZM276.36,95.87c7.91,1.52,18.26,4.2,29.87,9.17-6.18-4.64-15.39-11.18-27.11-18.17-19.91-11.88-36.07-18.55-54.45-26.01-21.28-8.64-36.01-12.87-39.73-13.95-14.86-4.3-25.82-6.5-35.17-7.91-25.91-3.92-40.73-2.02-44.54-1.48-7.65,1.08-15.19,2.2-24.32,6.4-6.13,2.82-17.61,8.26-26.04,20.68-6.74,9.94-8.29,19.57-9.44,26.7-1.67,10.37-.88,18.63-.16,25.63.48,4.66,1.48,11.93,4.62,23.29,2.94,10.66,7.9,25.44,16.56,42.62,10.52,20.88,20.02,35.99,26.5,45.73,9.24,13.9,17.78,25.04,24.22,33.04-.11-.97-.29-2.44-.57-4.22-.75-4.84-1.69-8.29-1.91-9.59-1.29-7.74-1.77-13.67-1.87-15.09-.38-4.93-.96-12.94-.05-22.73.49-5.35,1.84-15.76,6.27-28.06,1.6-4.45,7.82-20.89,22.6-37.99,6.6-7.63,12.56-12.65,16.29-15.77,15.28-12.76,29.35-19.54,35.42-22.26,16.15-7.23,29.55-9.78,34.02-10.55,11.6-2.01,20.88-2.07,25.34-2,2.85.05,11.94.29,23.65,2.54Z"
     id="path1"
     style="fill:#ffffff" />
</svg>
