<?xml version="1.0" encoding="UTF-8"?>
<svg id="Capa_1" data-name="Capa 1" xmlns="http://www.w3.org/2000/svg" viewBox="0 0 609.76 526.15">
  <defs>
    <style>
      .cls-1 {
        fill: #000;
        opacity: .1;
        stroke-width: 0px;
      }
    </style>
  </defs>
  <path class="cls-1" d="M61.49,1.27c3.22-.37,13.4-1.42,29.93.05,5.51.49,16.89,1.72,34.88,6.01,25.01,5.97,43.56,13.29,56.7,18.53,16.44,6.56,28.83,12.52,37.07,16.51,4.02,1.94,15.89,7.74,31.95,16.56,6.26,3.44,28.61,15.84,57.22,34.62,13.32,8.74,34.58,22.77,59.95,42.91,8.66,6.87,17.23,14,29.84,24.5,13.55,11.28,20.5,17.07,29.06,24.65,14.55,12.9,25.02,23.22,32.06,30.18,10.49,10.38,28.8,28.56,50.66,54.26,7.81,9.18,19.52,23.01,33.62,42.42,19.58,26.97,30.98,47.11,36.43,57.21,3.52,6.53,6.24,11.98,8.71,17.26,3.83,8.22,9.51,20.54,14.22,37.08,2.77,9.75,3.91,16.39,4.37,19.37.43,2.75,1.47,9.92,1.51,17.62.02,4.16-.26,7.43-.33,8.24-.28,3.11-.65,5.41-.77,6.08-.55,3.25-1.18,5.68-1.36,6.34-1.34,5.01-2.99,8.66-3.38,9.52-2.38,5.19-5.02,8.83-6.14,10.29-1.23,1.62-6.34,8.13-15.54,13.73-3.49,2.12-8.09,4.43-15.15,6.59-17.03,5.19-32.04,4.49-43,3.89-13.98-.77-24.79-3.05-33.03-4.79-4.94-1.04-10.88-2.44-19.01-4.75-9.08-2.58-32.36-9.54-63.64-23.43-10.77-4.78-24.53-11.29-40.22-19.78-16.99-9.16-38-21.17-61.46-36.28-13.17-8.48-45.14-29.54-84.43-61.38-25.58-20.95-46.02-39.51-61.24-53.99-18.26-17.38-30.89-30.67-35.79-35.89-11.05-11.77-20.29-22.41-22.12-24.51-1.48-1.7-3.52-4.06-6.22-7.26-2.27-2.69-15.18-18.53-15.18-18.53h0c-3.1-3.92-5.84-7.46-8.18-10.54,0,0-3.74-4.92-7.12-9.55-.59-.8-1.24-1.71-1.24-1.71-1.67-2.29-3.04-4.2-3.59-4.97-2.23-3.12-4.42-6.32-5.86-8.41-2.96-4.33-5.35-7.82-8.41-12.59-.19-.29-1.88-2.95-3.85-6.13-4.37-7.06-10.12-16.39-16.67-29.09-2.98-5.77-6.82-13.26-11.12-23.58-3.06-7.35-7.14-17.4-10.65-31.06-2.45-9.55-3.29-15.73-3.69-19.26-.44-3.96-1.23-11.07-.65-18.76.52-6.88,1.8-23.8,14.31-37.73,8.32-9.26,17.93-13.12,23.34-15.29,8.72-3.5,15.86-4.32,23.19-5.17ZM242.94,232.51h82.28c2.02.08,3.87.42,5.54.92,0,0,4.23,1.29,7.94,4.38,4.5,3.75,99.63,93.39,229.36,216.11.47-1.36,1.01-3.05,1.53-5.02.23-.88.82-3.17,1.34-6.23,0,0,.94-5.52,1.12-11.42.16-5.17-.18-15.87-3.12-29.91-2.74-13.11-6.43-22.83-9.12-29.8-1.19-3.1-3.19-8.1-6.25-14.7-10.79-23.28-24.53-44.38-26.79-47.83-7.45-11.37-25.66-38.18-54.46-70.13-17.65-19.58-32.28-33.32-41.13-41.61-5.02-4.7-25.76-23.97-55.4-47.19-6.17-4.84-11.42-8.82-15.23-11.67,6.06,8.75,10.05,16.65,12.66,22.61,2.67,6.1,4.42,11.76,5.29,14.57.25.79.5,1.73.99,3.61,1.3,4.93,1.5,6.46,1.16,8.14-.29,1.43-.87,2.41-1.05,2.69-.25.4-.7,1.12-1.54,1.8-1.03.83-2.05,1.12-2.66,1.28-1.42.38-2.67.31-3.5.18-12.33-.12-24.67-.25-37-.37-.43-7.8-1.96-19.55-7.32-32.7-2.93-7.19-9.32-22.36-24.77-35.72-4.55-3.94-20.69-17.51-44.81-20.18-1.47-.16-5.87-.61-11.71-.39-21.48.81-36.82,9.67-43.9,13.88-13.44,7.98-21.66,16.96-26.38,22.2-2.36,2.62-10.64,12.03-18.32,26.46-7.06,13.27-10.18,24.31-10.83,26.68-1.09,3.97-5.78,21.84-3.54,45.89,1.17,12.55,3.39,33.64,17.46,55.3,9.71,14.95,20.83,23.64,27.84,29.03,0,0,18.62,14.27,36.18,18.82,8.05,2.09,14.3,2.5,19.31,2.8,10.44.63,32.74,1.7,54.35-10.15,10.76-5.9,15.75-11.94,17.53-14.24,5.14-6.67,7.12-12.93,7.66-14.73.76-2.55,2.36-8.79,1.61-16.69-.3-3.22-.91-5.8-1.35-7.41-1.53-5.59-3.91-9.86-5.71-12.59-1.6-2.42-6.38-9.12-15.21-14.12-4.8-2.72-8.78-3.8-12.65-4.84-8.64-2.33-17.61-2.28-28.05-2.28s-17.76-7.09-19.37-15.43ZM188.15,337.37c3.44,3.19,7.44,6.85,11.94,10.85,2.02,1.8,5.99,5.31,11.11,9.71,7.31,6.27,13.02,10.95,15.31,12.81,1.42,1.15,5.32,4.33,10.48,8.38.83.65,2.95,2.32,5.42,4.23,13.61,10.53,25.25,18.75,28.54,21.06,0,0,2.4,1.69,4.76,3.32,28.16,19.47,54.87,34.36,54.87,34.36,13.93,7.77,34.48,19.13,63.03,30.5,9.21,3.66,19.91,7.89,34.74,12.23,34.9,10.21,58.08,10.91,65.23,11.01,0,0,20.61.1,36.58-5.35,2.93-1,5.65-2.21,5.65-2.21,2.54-1.12,4.62-2.23,6.17-3.11-62.5-60.2-125-120.4-187.49-180.6-6.55,8.59-13.22,14.92-18.56,19.36-2.84,2.36-11.66,9.46-24.8,15.87-2.17,1.06-8.77,4.2-17.86,7.11-5.91,1.89-14.26,4.13-24.46,5.46-12.84,1.68-22.8,1.17-26.09.95-7.53-.48-17.52-1.79-28.9-5.19-9.36-3.79-13.28-5.37-14.91-6.03-.12-.05-3.11-1.25-3.11-1.25-1.7-.71-3.19-1.37-4.43-1.94-1.08-.51-2.15-1.03-3.23-1.54ZM275.61,94.94c7.9,1.5,18.26,4.14,29.87,9.08-6.19-4.62-15.41-11.13-27.13-18.08-19.92-11.81-36.09-18.44-54.47-25.84-21.29-8.58-36.01-12.77-39.74-13.83-14.86-4.26-25.82-6.42-35.16-7.81-25.9-3.85-40.7-1.91-44.5-1.36-7.64,1.1-15.17,2.24-24.28,6.46-6.11,2.83-17.58,8.3-25.96,20.73-6.71,9.95-8.23,19.57-9.36,26.7-1.64,10.37-.83,18.62-.09,25.61.49,4.65,1.51,11.91,4.68,23.26,2.97,10.64,7.96,25.4,16.65,42.54,10.56,20.83,20.1,35.9,26.6,45.62,9.27,13.86,17.83,24.98,24.29,32.94-.11-.97-.3-2.44-.58-4.21-.76-4.83-1.71-8.28-1.93-9.58-1.31-7.73-1.8-13.65-1.91-15.07-.39-4.92-.99-12.93-.11-22.71.48-5.35,1.8-15.75,6.19-28.05,1.59-4.45,7.76-20.89,22.48-38.02,6.57-7.64,12.51-12.68,16.23-15.8,15.23-12.79,29.27-19.6,35.33-22.33,16.12-7.26,29.5-9.85,33.97-10.63,11.59-2.04,20.86-2.12,25.31-2.06,2.85.04,11.93.26,23.63,2.48Z"/>
</svg>