<?xml version="1.0" encoding="UTF-8"?>
<svg id="Capa_1" data-name="Capa 1" xmlns="http://www.w3.org/2000/svg" viewBox="0 0 618.07 617.93">
  <defs>
    <style>
      .cls-1 {
        fill: #649760;
        stroke-width: 0px;
      }
    </style>
  </defs>
  <path class="cls-1" d="M618.32,63.32v554.74h-70.69V94.95c0-19.86-15.13-36.83-34.94-38.2-21.8-1.5-40.17,15.92-40.17,37.46v523.83h-26.12V163.54c0-19.86-15.13-36.83-34.94-38.2-21.8-1.5-40.17,15.92-40.17,37.46v455.24h-27.73V58.47c0-19.86-15.13-36.83-34.94-38.2-21.8-1.5-40.17,15.92-40.17,37.42v560.36h-27.73V192.95c0-20.5-16.11-37.79-36.6-38.3-21.11-.53-38.51,16.55-38.51,37.5v425.9h-31.03V247.32c0-19.86-15.13-36.83-34.94-38.2-21.8-1.5-40.17,15.92-40.17,37.47v371.47h0c-32.18,0-58.27-26.09-58.27-58.27V.91s554.74,0,554.74,0c34.47,0,62.4,27.94,62.4,62.4Z"/>
</svg>