<?xml version="1.0" encoding="UTF-8"?>
<svg id="Capa_1" data-name="Capa 1" xmlns="http://www.w3.org/2000/svg" viewBox="0 0 609.76 609.49">
  <defs>
    <style>
      .cls-1 {
        fill: #eaeaea;
      }

      .cls-1, .cls-2 {
        stroke-width: 0px;
      }

      .cls-2 {
        fill: #000;
      }
    </style>
  </defs>
  <path class="cls-1" d="M609.73-.01v527.45c0,45.41-36.81,82.22-82.22,82.22H.05V82.21C.05,36.8,36.87-.01,82.28-.01h527.45Z"/>
  <path class="cls-2" d="M211.79,390.52c6.3,0,12.27-.56,17.9-1.84,5.71-1.23,10.77-3.18,15.04-6.15,4.27-2.77,7.8-6.66,10.37-11.53,2.58-4.87,3.81-11.17,3.81-18.8,0-14.96-4.2-25.56-12.57-32.02-8.38-6.3-19.54-9.48-33.28-9.48h-69.39v79.81h68.11ZM208.26,267.11c11.31,0,20.68-2.66,28.09-8.15,7.34-5.33,10.9-14.19,10.9-26.33,0-6.76-1.18-12.35-3.56-16.65-2.46-4.3-5.72-7.74-9.84-10.09-4.08-2.46-8.7-4.15-14.05-5.07-5.26-1.02-10.77-1.43-16.41-1.43h-59.72v67.72h64.58ZM216.52,150c13.87,0,26.38,1.18,37.82,3.69,11.37,2.41,21.08,6.4,29.28,11.94,8.07,5.53,14.4,12.86,18.92,22.13,4.42,9.12,6.63,20.49,6.63,34.02,0,14.6-3.31,26.79-9.93,36.53-6.68,9.73-16.48,17.67-29.58,23.92,17.84,5.12,31.05,14.14,39.81,26.95,8.81,12.96,13.12,28.43,13.12,46.57,0,14.7-2.82,27.36-8.44,38.01-5.67,10.76-13.4,19.52-22.92,26.23-9.6,6.81-20.63,11.78-32.99,15.06-12.21,3.23-24.9,4.87-37.88,4.87H79.84V150h136.68Z"/>
  <path class="cls-2" d="M479.82,279.25c-6.85-7.58-18.45-11.68-32.61-11.68-9.22,0-16.84,1.59-22.95,4.71-5.97,3.13-10.85,7.02-14.59,11.58-3.72,4.66-6.26,9.53-7.73,14.8-1.49,5.07-2.37,9.73-2.64,13.83h93.81c-1.38-14.7-6.41-25.56-13.29-33.25h0ZM413.58,389.55c8.63,8.45,21.11,12.7,37.28,12.7,11.63,0,21.68-2.97,30.11-8.81,8.36-5.84,13.44-12.09,15.4-18.6h50.77c-8.16,25.26-20.54,43.29-37.43,54.15-16.7,10.91-37.05,16.34-60.78,16.34-16.54,0-31.41-2.66-44.77-7.94-13.36-5.33-24.52-12.81-33.9-22.59-9.14-9.78-16.25-21.36-21.32-34.99-5-13.52-7.53-28.48-7.53-44.72s2.62-30.38,7.75-43.9c5.24-13.58,12.47-25.36,21.99-35.19,9.54-9.89,20.84-17.67,34.01-23.41,13.17-5.69,27.69-8.55,43.78-8.55,17.76,0,33.31,3.43,46.64,10.4,13.29,6.86,24.18,16.19,32.74,27.82,8.56,11.63,14.64,24.95,18.45,39.86,3.78,14.86,5.1,30.43,4.01,46.72h-151.48c0,16.6,5.61,32.32,14.28,40.73h0Z"/>
  <polygon class="cls-2" points="387.51 169.42 387.51 198.06 505.02 198.06 505.02 169.42 387.51 169.42 387.51 169.42"/>
</svg>