<?xml version="1.0" encoding="UTF-8"?>
<svg id="Capa_1" data-name="Capa 1" xmlns="http://www.w3.org/2000/svg" viewBox="0 0 446.77 617.93">
  <defs>
    <style>
      .cls-1 {
        fill: #649760;
        stroke-width: 0px;
      }
    </style>
  </defs>
  <path class="cls-1" d="M24.59,393.48h0c13.19,0,23.89,10.71,23.89,23.89v200.15H.69v-200.15c0-13.19,10.71-23.89,23.89-23.89Z"/>
  <path class="cls-1" d="M91.52,318.95h0c13.19,0,23.89,10.71,23.89,23.89v274.68h-47.79v-274.68c0-13.19,10.71-23.89,23.89-23.89Z"/>
  <path class="cls-1" d="M157.24,186.72h0c13.19,0,23.89,10.71,23.89,23.89v398.4c0,4.7-3.82,8.52-8.52,8.52h-30.75c-4.7,0-8.52-3.82-8.52-8.52V210.61c0-13.19,10.71-23.89,23.89-23.89Z"/>
  <path class="cls-1" d="M223.55,83.33h0c13.19,0,23.89,10.71,23.89,23.89v501.78c0,4.7-3.82,8.52-8.52,8.52h-30.75c-4.7,0-8.52-3.82-8.52-8.52V107.23c0-13.19,10.71-23.89,23.89-23.89Z"/>
  <path class="cls-1" d="M290.49,209.56h0c13.19,0,23.89,10.71,23.89,23.89v384.08h-47.79V233.45c0-13.19,10.71-23.89,23.89-23.89Z"/>
  <path class="cls-1" d="M356.2,139.83h0c13.19,0,23.89,10.71,23.89,23.89v453.8h-47.79V163.73c0-13.19,10.71-23.89,23.89-23.89Z"/>
  <path class="cls-1" d="M422.31.38h0c13.19,0,23.89,10.71,23.89,23.89v593.25h-47.79V24.28c0-13.19,10.71-23.89,23.89-23.89Z"/>
</svg>