<?xml version="1.0" encoding="UTF-8"?>
<svg id="Capa_1" data-name="Capa 1" xmlns="http://www.w3.org/2000/svg" viewBox="0 0 619.25 617.93">
  <defs>
    <style>
      .cls-1 {
        fill: #eaeaea;
        stroke-width: 0px;
      }
    </style>
  </defs>
  <path class="cls-1" d="M618.84,62.08v555.45h-70.79v-337.03c0-18.68-13.14-35.37-31.6-38.28-23.28-3.66-43.61,14.45-43.61,37.13v338.18h-26.16v-217.69c0-18.68-13.14-35.37-31.6-38.28-23.28-3.66-43.61,14.45-43.61,37.13v218.84h-29.13c.87-3.18,1.36-6.53,1.36-10v-274.72c0-18.68-13.14-35.38-31.6-38.28-23.28-3.66-43.61,14.46-43.61,37.09v275.91c0,3.47.5,6.82,1.36,10h-29.13v-230.53c0-19.99-15.02-37.5-34.96-38.88-21.89-1.51-40.25,15.94-40.25,37.47v231.94h-31.07v-163.73c0-18.68-13.14-35.37-31.6-38.28-23.28-3.66-43.61,14.45-43.61,37.13v164.88h0c-32.09,0-58.35-26.26-58.35-58.35V-.41h555.45c34.37,0,62.48,28.12,62.48,62.48Z"/>
</svg>