<?xml version="1.0" encoding="UTF-8"?>
<svg id="Capa_1" data-name="Capa 1" xmlns="http://www.w3.org/2000/svg" viewBox="0 0 619.25 617.93">
  <defs>
    <style>
      .cls-1 {
        fill: #eaeaea;
        stroke-width: 0px;
      }
    </style>
  </defs>
  <path class="cls-1" d="M619.52,61.06v556.87h-71.8v-49.27c0-18.73-13.18-35.47-31.68-38.38-23.34-3.67-43.72,14.49-43.72,37.23v50.42h-26.23v-93.52c0-18.73-13.18-35.47-31.68-38.38-23.34-3.67-43.72,14.49-43.72,37.23v94.67h-27.84v-133.66c0-18.73-13.18-35.47-31.68-38.38-23.34-3.67-43.72,14.49-43.72,37.19v134.86h-27.84v-118.69c0-20.04-15.06-37.6-35.05-38.98-21.95-1.52-40.35,15.98-40.35,37.57v120.11h-31.16v-94.35c0-18.73-13.18-35.47-31.68-38.38-23.34-3.67-43.72,14.49-43.72,37.23v95.5h0c-31.72,0-57.67-25.95-57.67-57.67V-1.59h556.91c34.46,0,62.65,28.19,62.65,62.65Z"/>
</svg>