<?xml version="1.0" encoding="UTF-8" standalone="no"?>
<svg
   id="Capa_1"
   viewBox="0 0 502.94315 639.91998"
   version="1.1"
   sodipodi:docname="mindMapFinal.svg"
   width="auto"
   height="auto"
   inkscape:version="1.3.2 (091e20e, 2023-11-25, custom)"
   xmlns:inkscape="http://www.inkscape.org/namespaces/inkscape"
   xmlns:sodipodi="http://sodipodi.sourceforge.net/DTD/sodipodi-0.dtd"
   xmlns="http://www.w3.org/2000/svg"
   xmlns:svg="http://www.w3.org/2000/svg">
  <sodipodi:namedview
     id="namedview139"
     pagecolor="#ffffff"
     bordercolor="#000000"
     borderopacity="0.25"
     inkscape:showpageshadow="2"
     inkscape:pageopacity="0.0"
     inkscape:pagecheckerboard="0"
     inkscape:deskcolor="#d1d1d1"
     inkscape:zoom="2.214405"
     inkscape:cx="151.95956"
     inkscape:cy="375.04432"
     inkscape:window-width="1366"
     inkscape:window-height="697"
     inkscape:window-x="-8"
     inkscape:window-y="-8"
     inkscape:window-maximized="1"
     inkscape:current-layer="Capa_1" />
  <defs
     id="defs1">
    <style
       id="style1">
                .cls-1 {
                  letter-spacing: -.08em;
                }

                .cls-1,
                .cls-2,
                .cls-3,
                .cls-4,
                .cls-5,
                .cls-6,
                .cls-7,
                .cls-8,
                .cls-9,
                .cls-10,
                .cls-11,
                .cls-12,
                .cls-13,
                .cls-14 {
                  font-family: 'raleway', sans-serif;
                  font-weight: 800;
                  font-size: 1rem;
                }

                .cls-2,
                .cls-15 {
                  letter-spacing: -.05em;
                }

                .cls-16,
                .cls-17,
                .cls-18,
                .cls-11 {
                  font-size: 15px;
                }

                .cls-16,
                .cls-18 {
                  font-family: 'raleway';
                  
                }

                .cls-16,
                .cls-19 {
                  fill: #c9fc59;
                }

                .cls-20 {
                  letter-spacing: -.01em;
                }

                .cls-17,
                .cls-21,
                .cls-22,
                .cls-23,
                .cls-18,
                .cls-11,
                .cls-12 {
                  fill: #fff;
                }

                .cls-24,
                .cls-13 {
                  letter-spacing: 0em;
                }

                .cls-25,
                .cls-26,
                .cls-9 {
                  letter-spacing: 0em;
                }

                .cls-27,
                .cls-26,
                .cls-28,
                .cls-29,
                .cls-30,
                .cls-31,
                .cls-32,
                .cls-33,
                .cls-34,
                .cls-35,
                .cls-36,
                .cls-37 {
                  font-family: Raleway, Raleway;
                  font-weight: 400;
                }

                .cls-27,
                .cls-8,
                .cls-38 {
                  letter-spacing: 0em;
                }

                .cls-21,
                .cls-39 {
                  stroke-miterlimit: 10;
                  stroke-width: .5px;
                }

                .cls-21,
                .cls-39,
                .cls-23 {
                  stroke: #fff;
                }

                .cls-40 {
                  letter-spacing: -.03em;
                }

                .cls-41 {
                  letter-spacing: -.05em;
                }

                .cls-42 {
                  letter-spacing: -.03em;
                }

                .cls-3 {
                  letter-spacing: -.02em;
                }

                .cls-39 {
                  fill: none;
                }

                .cls-23 {
                  stroke-linejoin: round;
                }

                .cls-28,
                .cls-43 {
                  letter-spacing: -.03em;
                }

                .cls-44 {
                  letter-spacing: -.03em;
                }

                .cls-29 {
                  letter-spacing: -.01em;
                }

                .cls-45 {
                  letter-spacing: -.11em;
                }

                .cls-5 {
                  letter-spacing: -.03em;
                }

                .cls-6 {
                  letter-spacing: -.03em;
                }

                .cls-7 {
                  letter-spacing: -.03em;
                }

                .cls-46 {
                  letter-spacing: -.11em;
                }

                .cls-30 {
                  letter-spacing: -.02em;
                }

                .cls-47,
                .cls-31 {
                  letter-spacing: 0em;
                }

                .cls-32 {
                  letter-spacing: -.01em;
                }

                .cls-48,
                .cls-36 {
                  letter-spacing: -.01em;
                }

                .cls-49 {
                  letter-spacing: -.02em;
                }

                .cls-34 {
                  letter-spacing: -.07em;
                }

                .cls-50 {
                  letter-spacing: -.03em;
                }

                .cls-35,
                .cls-51,
                .cls-14 {
                  letter-spacing: 0em;
                }

                .cls-52 {
                  letter-spacing: 0em;
                }

                .cls-10 {
                  letter-spacing: -.02em;
                }

                .cls-37 {
                  letter-spacing: -.01em;
                }

                .cls-12 {
                  font-size: 10px;
                }
              </style>
  </defs>
  <rect
     x="-7.6637111"
     y="-34.486706"
     width="545.69904"
     height="675.68402"
     id="rect1" />
  <text
     class="cls-18"
     id="text6"
     x="11.240003"
     y="30.830004"><tspan
       x="11.240003"
       y="30.830004"
       id="tspan1">¿Dueñ</tspan><tspan
       class="cls-48"
       x="57.300003"
       y="30.830004"
       id="tspan2">o</tspan><tspan
       class="cls-41"
       x="66.330002"
       y="30.830004"
       id="tspan3">/</tspan><tspan
       class="cls-51"
       x="77.300003"
       y="30.830004"
       id="tspan4">a de</tspan><tspan
       class="cls-47"
       x="112.14001"
       y="30.830004"
       id="tspan5">N</tspan><tspan
       x="123.32001"
       y="30.830004"
       id="tspan6">egocio?</tspan></text>
  <text
     class="cls-17"
     id="text19"
     x="313.95999"
     y="30.830004"
     style="white-space:pre;inline-size:202.606"
     xml:space="preserve"><tspan
       x="313.95999"
       y="30.830004"
       id="tspan55"><tspan
         style="font-family:Raleway, Raleway;letter-spacing:-0.02em"
         id="tspan48">A</tspan><tspan
         dx="-0.30000019"
         style="font-family:Raleway, Raleway;letter-spacing:0em"
         id="tspan49">gendá</tspan><tspan
         style="font-weight:800;font-family:raleway, sans-serif"
         id="tspan50"> una llamada </tspan><tspan
         dx="0.44999617"
         style="font-weight:800;font-family:raleway, sans-serif;letter-spacing:-0.03em"
         id="tspan51">y </tspan><tspan
         dx="-0.29999697"
         style="letter-spacing:-0.01em"
         id="tspan52">t</tspan><tspan
         dx="-0.15000916"
         id="tspan53">e </tspan></tspan><tspan
       x="313.95999"
       y="49.580005"
       id="tspan60"><tspan
         style="letter-spacing:-0.01em"
         id="tspan56">a</tspan><tspan
         dx="-0.14999962"
         id="tspan57">yudo a emp</tspan><tspan
         dx="0.74999809"
         style="letter-spacing:-0.05em"
         id="tspan58">r</tspan><tspan
         dx="-0.75"
         id="tspan59">enderlo</tspan></tspan></text>
  <text
     class="cls-17"
     id="text25"
     x="299.36002"
     y="180.63"
     style="white-space:pre;inline-size:229.059"
     xml:space="preserve"><tspan
       x="299.36002"
       y="180.63"
       id="tspan68"><tspan
         style="font-weight:800;font-family:raleway, sans-serif"
         id="tspan61">Solucionalo </tspan><tspan
         style="font-weight:800;font-family:raleway, sans-serif;letter-spacing:0em"
         id="tspan63">c</tspan><tspan
         style="font-weight:800;font-family:raleway, sans-serif"
         id="tspan64">on </tspan><tspan
         style="font-family:Raleway, Raleway"
         id="tspan65">B</tspan><tspan
         dx="0.14999999"
         style="font-family:Raleway, Raleway;letter-spacing:-0.01em"
         id="tspan66">R</tspan><tspan
         dx="-0.1499939"
         style="font-family:Raleway, Raleway;letter-spacing:0em"
         id="tspan67">ANDING</tspan></tspan></text>
  <text
     class="cls-16"
     id="text34"
     x="311.36002"
     y="261.01001"><tspan
       class="cls-40"
       x="311.36002"
       y="261.01001"
       id="tspan26">A</tspan><tspan
       x="320.92999"
       y="261.01001"
       id="tspan27">GEN</tspan><tspan
       class="cls-50"
       x="352.28"
       y="261.01001"
       id="tspan28">D</tspan><tspan
       class="cls-42"
       x="362.58002"
       y="261.01001"
       id="tspan29">Á</tspan><tspan
       x="372.14001"
       y="261.01001"
       xml:space="preserve"
       id="tspan30"> UN</tspan><tspan
       class="cls-42"
       x="397.97"
       y="261.01001"
       id="tspan31">A</tspan><tspan
       x="407.52002"
       y="261.01001"
       xml:space="preserve"
       id="tspan32"> LLAMA</tspan><tspan
       class="cls-40"
       x="461.27002"
       y="261.01001"
       id="tspan33">D</tspan><tspan
       class="cls-42"
       x="471.57001"
       y="261.01001"
       id="tspan34">A</tspan></text>
  <text
     class="cls-17"
     id="text46"
     x="289.12"
     y="341.38"><tspan
       class="cls-4"
       x="289.12"
       y="341.38"
       id="tspan35">Solucionalo</tspan><tspan
       class="cls-9"
       x="374.32001"
       y="341.38"
       id="tspan36">c</tspan><tspan
       class="cls-4"
       x="382.48001"
       y="341.38"
       id="tspan37">on</tspan><tspan
       class="cls-37"
       x="403.97"
       y="341.38"
       id="tspan38">E</tspan><tspan
       class="cls-26"
       x="412.76001"
       y="341.38"
       id="tspan39">S</tspan><tspan
       class="cls-33"
       x="421.88"
       y="341.38"
       id="tspan40">T</tspan><tspan
       class="cls-29"
       x="431.17001"
       y="341.38"
       id="tspan41">R</tspan><tspan
       class="cls-34"
       x="440.98001"
       y="341.38"
       id="tspan42">A</tspan><tspan
       class="cls-33"
       x="450.01001"
       y="341.38"
       id="tspan43">T</tspan><tspan
       class="cls-37"
       x="459.29001"
       y="341.38"
       id="tspan44">E</tspan><tspan
       class="cls-33"
       x="468.08002"
       y="341.38"
       id="tspan45">GI</tspan><tspan
       class="cls-28"
       x="483.25"
       y="341.38"
       id="tspan46">A</tspan></text>
  <text
     class="cls-17"
     id="text61"
     x="121.51067"
     y="172.03"
     style="text-align:start;text-anchor:start;white-space:pre;inline-size:189.935"
     transform="translate(-116.23297,-0.6386427)"
     xml:space="preserve"><tspan
       x="121.51067"
       y="172.03"
       id="tspan72"><tspan
         style="letter-spacing:-0.11em"
         id="tspan69">¿Tenés  </tspan><tspan
         dx="-1.8500016"
         style="letter-spacing:0.2px"
         id="tspan70">problemas</tspan><tspan
         dx="1.8500084"
         style="letter-spacing:-0.11em"
         id="tspan71"> para    </tspan></tspan><tspan
       x="121.51067"
       y="190.78"
       id="tspan76"><tspan
         style="fill:#000000"
         id="tspan73">--</tspan><tspan
         dx="-1.6500001"
         style="font-family:raleway, sans-serif;-inkscape-font-specification:'raleway, sans-serif'"
         id="tspan74">posicionar</tspan><tspan
         style="font-weight:800;font-family:raleway, sans-serif"
         id="tspan75"> tu marca?</tspan></tspan></text>
  <line
     class="cls-21"
     x1="185.03003"
     y1="27.339996"
     x2="303.71002"
     y2="27.339996"
     id="line61" />
  <line
     class="cls-21"
     x1="195.40797"
     y1="176.09"
     x2="294.21002"
     y2="176.09"
     id="line62" />
  <text
     class="cls-17"
     id="text86"
     x="47.150002"
     y="332.10001"><tspan
       x="47.150002"
       y="332.10001"
       id="tspan62"
       style="letter-spacing:-0.2px" /></text>
  <line
     class="cls-21"
     x1="212.45001"
     y1="336.64001"
     x2="282.89001"
     y2="336.64001"
     id="line86" />
  <line
     class="cls-21"
     x1="96.099976"
     y1="37.100006"
     x2="96.099976"
     y2="155.78"
     id="line87" />
  <line
     class="cls-21"
     x1="96.099976"
     y1="196.39001"
     x2="96.099976"
     y2="315.07001"
     id="line88" />
  <text
     class="cls-11"
     id="text94"
     x="37.360001"
     y="496.67999"><tspan
       class="cls-52"
       x="37.360001"
       y="496.67999"
       id="tspan88">E</tspan><tspan
       x="46.400002"
       y="496.67999"
       id="tspan89">stás en e</tspan><tspan
       class="cls-43"
       x="108.22"
       y="496.67999"
       id="tspan90">l</tspan><tspan
       x="111.83"
       y="496.67999"
       xml:space="preserve"
       id="tspan91"> camino </tspan><tspan
       x="37.360001"
       y="514.67999"
       id="tspan92">de estás ma</tspan><tspan
       class="cls-44"
       x="121.72"
       y="514.67999"
       id="tspan93">r</tspan><tspan
       class="cls-51"
       x="126.59"
       y="514.67999"
       id="tspan94">cas</tspan></text>
  <line
     class="cls-21"
     x1="96.099976"
     y1="375.59"
     x2="96.099976"
     y2="479.64999"
     id="line94" />
  <line
     class="cls-39"
     x1="396.75995"
     y1="185.84"
     x2="396.75995"
     y2="240.44"
     id="line95" />
  <line
     class="cls-21"
     x1="396.75995"
     y1="269.70999"
     x2="396.75995"
     y2="324.31"
     id="line96" />
  <polygon
     class="cls-22"
     points="807.93,312.36 804.93,309.36 810.92,309.36 "
     id="polygon96"
     transform="translate(-711.81,-156.09)" />
  <polygon
     class="cls-22"
     points="807.93,474.46 804.93,471.47 810.92,471.47 "
     id="polygon97"
     transform="translate(-711.81,-156.09)" />
  <polygon
     class="cls-22"
     points="1108.57,481.09 1105.57,478.09 1111.57,478.09 "
     id="polygon98"
     transform="translate(-711.81,-156.09)" />
  <polygon
     class="cls-22"
     points="995.24,492.76 992.34,495.76 992.34,489.77 "
     id="polygon99"
     transform="translate(-711.81,-156.09)" />
  <polygon
     class="cls-22"
     points="1007.04,332.21 1004.05,335.2 1004.05,329.21 "
     id="polygon100"
     transform="translate(-711.81,-156.09)" />
  <polygon
     class="cls-22"
     points="1016.22,183.4 1013.23,186.4 1013.23,180.41 "
     id="polygon101"
     transform="translate(-711.81,-156.09)" />
  <polygon
     class="cls-22"
     points="1108.57,397.95 1105.57,394.95 1111.57,394.95 "
     id="polygon102"
     transform="translate(-711.81,-156.09)" />
  <polygon
     class="cls-22"
     points="807.93,637.37 804.93,634.37 810.92,634.37 "
     id="polygon103"
     transform="translate(-711.81,-156.09)" />
  <text
     class="cls-12"
     id="text103"
     x="100.17001"
     y="100.29"><tspan
       x="100.17001"
       y="100.29"
       id="tspan103">SI</tspan></text>
  <text
     class="cls-12"
     id="text104"
     x="237.84"
     y="173.09"><tspan
       x="237.84"
       y="173.09"
       id="tspan104">SI</tspan></text>
  <text
     class="cls-12"
     id="text105"
     x="244.58"
     y="332.72"><tspan
       x="244.58"
       y="332.72"
       id="tspan105">SI</tspan></text>
  <text
     class="cls-12"
     id="text106"
     x="101.33"
     y="435.25"><tspan
       x="101.33"
       y="435.25"
       id="tspan106">NO</tspan></text>
  <text
     class="cls-12"
     id="text107"
     x="101.36"
     y="263.28"><tspan
       x="101.36"
       y="263.28"
       id="tspan107">NO</tspan></text>
  <text
     class="cls-12"
     id="text108"
     x="237.84"
     y="23.530005"><tspan
       x="237.84"
       y="23.530005"
       id="tspan108">NO</tspan></text>
  <g
     id="g112"
     transform="translate(-711.81,-156.09)">
    <path
       class="cls-22"
       d="m 971.51,739.05 c 1.1,1.05 1.1,2.76 0,3.81 -1.1,1.05 -2.89,1.05 -3.99,0 l -19.95,-19.05 v 0 c -1.09,-1.06 -1.09,-2.76 0,-3.81 1.09,-1.05 2.88,-1.05 3.98,0 0,0 0,0 0,0 l 19.95,19.05 z"
       id="path108" />
    <path
       class="cls-22"
       d="m 971.55,758.16 c -1.1,1.05 -2.89,1.05 -3.99,0 L 951.69,743 c -0.73,-0.7 -1.72,-1.09 -2.75,-1.09 h -12.76 c -1.03,0 -2.02,-0.39 -2.75,-1.09 l -17.84,-17.04 c 0,0 0,0 0,0 -1.09,-1.05 -1.09,-2.75 0,-3.8 1.1,-1.05 2.88,-1.05 3.98,0 l 16.58,15.83 v 0 c 1.1,1.05 2.89,1.05 3.99,0 1.1,-1.05 1.1,-2.76 0,-3.81 v 0 c 0,0 -8.6,-8.21 -8.6,-8.21 0,0 0,0 0,0 -1.09,-1.05 -1.09,-2.75 0,-3.8 1.1,-1.05 2.88,-1.05 3.98,0 0,0 0,0 0,0 l 36,34.38 c 1.1,1.05 1.1,2.76 0,3.81 z"
       id="path109" />
    <path
       class="cls-22"
       d="m 939.41,769.46 c 0.95,1.06 0.9,2.66 -0.15,3.66 -1.1,1.05 -2.89,1.05 -3.99,0 l -19.43,-18.55 c 0,0 0,0 0,0 -1.09,-1.05 -1.09,-2.75 0,-3.8 1.05,-1.01 2.74,-1.05 3.84,-0.13 0.04,0.05 0.09,0.09 0.14,0.14 0,0 0,0 0,0 l 19.43,18.55 c 0,0 0.1,0.09 0.15,0.13 q 0,0 0,0 z"
       id="path110" />
    <path
       class="cls-22"
       d="m 971.52,773.39 c -1.08,1.03 -2.82,1.05 -3.93,0.06 0,0 0,0 0,0 -0.03,-0.03 -0.06,-0.07 -0.1,-0.1 L 948.06,754.8 c 0,0 0,0 0,0 -0.04,-0.03 -0.07,-0.07 -0.11,-0.1 -1.11,-0.94 -2.81,-0.91 -3.87,0.11 -1.1,1.05 -1.1,2.75 0,3.8 0,0 0,0 0,0 l 11.38,10.87 v 0 c 1.1,1.06 1.1,2.77 0,3.82 -1.1,1.05 -2.89,1.05 -3.99,0 L 915.7,739.14 c 0,0 0,0 0,0 -1.09,-1.05 -1.09,-2.75 0,-3.8 1.1,-1.05 2.88,-1.05 3.98,0 0,0 0,0 0,0 l 12.26,11.71 c 0.58,0.56 1.37,0.87 2.2,0.87 h 13.4 c 0.82,0 1.61,0.31 2.2,0.87 l 21.78,20.8 c 1.1,1.05 1.1,2.76 0,3.81 z"
       id="path111" />
    <ellipse
       class="cls-22"
       cx="919.51001"
       cy="769.5"
       rx="2.8099999"
       ry="2.6800001"
       id="ellipse111" />
    <ellipse
       class="cls-22"
       cx="967.44"
       cy="723.77002"
       rx="2.8099999"
       ry="2.6800001"
       id="ellipse112" />
  </g>
  <g
     id="g117"
     transform="translate(-711.81,-156.09)">
    <g
       id="g113">
      <path
         class="cls-22"
         d="m 1024.82,758.03 c 0.48,-10.29 3.07,-13.63 6.3,-16.03 3.32,-2.46 7.49,-3.32 10.45,-3.45 v -6.96 c -4.29,-0.03 -7.9,0.86 -11.56,3.17 -5.16,3.27 -6.88,8.87 -6.88,14.44 v 25.56 h -1.64 V 749.2 c 0,-5.57 -1.72,-11.17 -6.88,-14.44 -3.65,-2.31 -7.27,-3.2 -11.56,-3.17 l 0.09,6.98 c 2.97,0.13 7.05,0.96 10.36,3.43 3.23,2.4 5.82,5.74 6.3,16.03 l 0.39,16.61 -1.34,-0.22 v -3.88 c 0,-2.77 0,-7.26 -0.52,-10.55 -0.9,-5.65 -2.51,-11.65 -7.38,-14.55 -1.34,-0.8 -3.87,-1.93 -7.9,-1.63 v 6.17 c 1.82,-0.2 5.81,-0.36 9.09,2.14 2.38,1.81 3.48,4.32 4.23,7.27 0.58,2.26 1.19,5.36 1.19,9.16 l 0.02,5.58 -1.44,-0.43 v -6.53 c 0,-5.89 -4.73,-10.66 -10.57,-10.66 -0.81,0 -1.6,0.09 -2.36,0.27 0,0 0,0 0,0 0.08,10.54 8.68,19.17 19.1,19.22 10.47,0.04 19.16,-8.59 19.26,-19.18 -0.81,-0.2 -1.65,-0.3 -2.51,-0.3 -5.84,0 -10.57,4.77 -10.57,10.66 v 6.52 l -1.44,0.44 0.02,-5.58 c 0,-3.8 0.61,-6.9 1.19,-9.16 0.75,-2.95 1.85,-5.46 4.23,-7.27 3.29,-2.5 7.27,-2.34 9.09,-2.14 v -6.17 c -4.03,-0.3 -6.56,0.83 -7.9,1.63 -4.87,2.91 -6.48,8.91 -7.38,14.55 -0.52,3.29 -0.52,7.78 -0.52,10.55 v 3.88 l -1.34,0.22 0.39,-16.61 z"
         id="path112" />
      <path
         class="cls-22"
         d="m 1022.39,776.1 c 0,0 -0.05,0 -0.08,0 -10.51,-0.04 -19.13,-8.71 -19.22,-19.33 v -0.09 c 0,0 0.09,-0.02 0.09,-0.02 0.78,-0.18 1.58,-0.27 2.38,-0.27 5.89,0 10.68,4.83 10.68,10.77 v 6.44 l 1.22,0.37 -0.02,-5.42 c 0,-3.03 -0.39,-6.01 -1.19,-9.14 -0.63,-2.46 -1.61,-5.25 -4.19,-7.21 -2.95,-2.25 -6.53,-2.4 -9.01,-2.12 h -0.12 c 0,0 0,-6.39 0,-6.39 h 0.1 c 3.08,-0.23 5.76,0.32 7.97,1.64 4.97,2.96 6.55,9.06 7.43,14.63 0.53,3.3 0.53,7.85 0.53,10.57 v 3.79 l 1.11,0.18 -0.39,-16.47 c -0.46,-9.74 -2.73,-13.32 -6.26,-15.94 -3.68,-2.73 -8.03,-3.31 -10.3,-3.4 h -0.11 c 0,0 -0.1,-7.21 -0.1,-7.21 h 0.11 c 4.51,-0.03 8.09,0.95 11.62,3.19 5.73,3.63 6.94,9.91 6.94,14.53 v 25.45 H 1023 V 749.2 c 0,-4.63 1.21,-10.91 6.94,-14.53 3.48,-2.2 7.01,-3.19 11.43,-3.19 0.06,0 0.13,0 0.19,0 h 0.11 c 0,0 0,7.18 0,7.18 h -0.11 c -1.84,0.08 -6.54,0.57 -10.39,3.43 -3.52,2.62 -5.8,6.2 -6.25,15.94 l -0.39,16.47 1.12,-0.18 v -3.79 c 0,-2.7 0,-7.23 0.52,-10.57 0.89,-5.57 2.46,-11.66 7.43,-14.63 2.21,-1.32 4.89,-1.87 7.97,-1.64 h 0.1 v 6.41 h -0.12 c -2.48,-0.29 -6.06,-0.15 -9.01,2.11 -2.57,1.96 -3.56,4.74 -4.19,7.21 -0.8,3.13 -1.19,6.12 -1.19,9.14 l -0.02,5.42 1.22,-0.37 v -6.44 c 0,-5.94 4.79,-10.77 10.68,-10.77 0.86,0 1.71,0.1 2.54,0.31 l 0.09,0.02 v 0.09 c -0.1,10.65 -8.75,19.29 -19.29,19.29 z m -19.07,-19.24 c 0.13,10.45 8.63,18.97 18.99,19.02 0.03,0 0.05,0 0.08,0 10.39,0 18.92,-8.49 19.07,-18.98 -0.78,-0.19 -1.59,-0.28 -2.4,-0.28 -5.77,0 -10.46,4.73 -10.46,10.55 v 6.61 l -1.66,0.5 0.02,-5.73 c 0,-3.03 0.39,-6.04 1.19,-9.19 0.64,-2.5 1.65,-5.33 4.27,-7.33 2.96,-2.26 6.53,-2.44 9.05,-2.18 v -5.94 c -2.99,-0.2 -5.59,0.34 -7.74,1.62 -4.89,2.92 -6.45,8.95 -7.33,14.47 -0.53,3.32 -0.52,7.84 -0.52,10.53 v 3.98 l -1.57,0.26 0.4,-16.75 c 0.46,-9.83 2.77,-13.45 6.34,-16.11 3.83,-2.84 8.48,-3.37 10.41,-3.46 v -6.74 h -0.07 c -4.38,0 -7.87,0.98 -11.31,3.15 -5.64,3.57 -6.83,9.77 -6.83,14.34 v 25.67 h -1.87 V 749.2 c 0,-4.57 -1.19,-10.77 -6.83,-14.34 -3.46,-2.19 -6.98,-3.16 -11.39,-3.15 l 0.09,6.76 c 2.32,0.11 6.65,0.72 10.32,3.44 3.58,2.66 5.89,6.28 6.35,16.11 l 0.4,16.75 -1.57,-0.26 v -3.98 c 0,-2.71 0,-7.25 -0.52,-10.53 -0.88,-5.52 -2.44,-11.56 -7.33,-14.47 -2.14,-1.28 -4.74,-1.82 -7.74,-1.62 v 5.94 c 2.52,-0.26 6.08,-0.08 9.05,2.18 2.63,2 3.63,4.83 4.27,7.33 0.8,3.14 1.19,6.15 1.19,9.19 l 0.02,5.73 -1.67,-0.5 v -6.61 c 0,-5.82 -4.69,-10.55 -10.46,-10.55 -0.76,0 -1.51,0.08 -2.24,0.25 z"
         id="path113" />
    </g>
    <g
       id="g116">
      <path
         class="cls-22"
         d="m 1018.66,731.97 c -0.71,-0.93 -0.72,-1.42 -0.71,-2.2 0.01,-0.78 0.58,-1.51 1.29,-2.04 -0.37,-0.11 -0.71,-0.29 -0.96,-0.62 -0.45,-0.58 -0.4,-1.28 -0.39,-1.37 0,-0.1 0.07,-0.66 0.48,-1.12 0.82,-0.93 2.52,-0.84 4.79,-1.03 0,0 0.22,-0.02 0.55,-0.1 0.44,-0.12 0.57,-0.23 0.64,-0.3 0.08,-0.08 0.18,-0.26 0.2,-0.35 0.05,-0.22 0.04,-0.43 -0.04,-0.62 h -9.91 c -0.51,1.1 -0.79,2.32 -0.79,3.61 0,4.24 3.05,7.75 7.05,8.45 -0.83,-0.72 -1.64,-1.59 -2.2,-2.31 z"
         id="path114" />
      <path
         class="cls-22"
         d="m 1029.07,720.65 c -1.55,-2.06 -4.01,-3.38 -6.77,-3.38 -2.76,0 -5.21,1.33 -6.77,3.38 h 13.53 z"
         id="path115" />
      <path
         class="cls-22"
         d="m 1030.02,722.22 h -4.23 c 0.13,0.79 -0.16,1.63 -0.87,2.11 -1.09,0.74 -1.63,0.5 -3.35,0.78 -0.44,0.07 -1.2,0.17 -1.4,0.56 -0.16,0.32 -0.13,0.9 0.13,1.07 0.29,0.19 0.69,0.25 1.09,0.26 0.21,-0.02 0.43,-0.02 0.66,-0.03 0,0 0,0 0,0 0.25,-0.02 0.61,0 0.99,0.04 0.53,0.05 1.03,0.16 1.44,0.34 0.03,0.01 0.06,0.03 0.08,0.04 0,0 0.02,0 0.02,0.01 0,0 0.01,0 0.02,0.01 0,0 0.02,0 0.03,0.01 0,0 0.01,0 0.02,0.01 0.02,0.01 0.04,0.03 0.06,0.04 0.01,0 0.02,0.01 0.03,0.02 0.01,0 0.03,0.02 0.04,0.03 0.94,0.67 1,2.14 1,2.14 l -1.25,0.08 c 0,0 0,-0.11 -0.01,-0.27 -0.03,-0.2 -0.11,-0.47 -0.34,-0.74 -0.6,-0.71 -1.64,-0.6 -2.04,-0.58 -1.09,0.05 -1.53,0.67 -1.69,1 -0.38,0.8 -0.15,1.62 -0.1,1.8 0,0 0.53,1.71 3.45,3.3 3.97,-0.73 6.97,-4.22 6.97,-8.43 0,-1.29 -0.29,-2.52 -0.79,-3.61 z"
         id="path116" />
    </g>
  </g>
  <g
     id="g119"
     transform="translate(-711.81,-156.09)">
    <path
       class="cls-22"
       d="m 856.91,746.02 c -0.2,0.22 -0.41,0.44 -0.63,0.66 0,0 0,0 -0.01,0.01 -0.24,0.24 -0.49,0.47 -0.74,0.69 0.23,-0.25 0.46,-0.49 0.7,-0.73 -2.9,-2.84 -6.86,-4.59 -11.24,-4.59 -4.38,0 -8.38,1.77 -11.28,4.63 -2.95,-2.91 -4.78,-6.96 -4.78,-11.44 0,-8.87 7.19,-16.06 16.06,-16.06 4.39,0 8.37,1.76 11.27,4.61 -2.95,2.91 -4.78,6.95 -4.78,11.42 0,4.47 1.82,8.5 4.77,11.41 0.22,-0.21 0.44,-0.42 0.67,-0.62 z"
       id="path117" />
    <path
       class="cls-22"
       d="m 861.06,758.12 c 0,4.49 -1.85,8.56 -4.82,11.47 -2.9,2.84 -6.86,4.59 -11.24,4.59 -8.87,0 -16.06,-7.19 -16.06,-16.06 0,-4.47 1.83,-8.52 4.78,-11.43 2.9,2.86 6.88,4.63 11.28,4.63 4.03,0 7.72,-1.49 10.54,-3.94 0.26,-0.22 0.5,-0.45 0.74,-0.69 2.95,2.91 4.78,6.96 4.78,11.43 z"
       id="path118" />
    <path
       class="cls-22"
       d="m 883.56,735.22 c 0,4.5 -1.86,8.57 -4.84,11.48 -2.89,2.82 -6.84,4.56 -11.2,4.56 -4.36,0 -8.34,-1.75 -11.23,-4.59 0.22,-0.21 0.43,-0.43 0.63,-0.66 2.58,-2.85 4.14,-6.63 4.14,-10.77 0,-4.48 -1.84,-8.54 -4.8,-11.45 2.9,-2.85 6.87,-4.62 11.26,-4.62 8.86,0 16.04,7.18 16.04,16.04 z"
       id="path119" />
    <circle
       class="cls-22"
       cx="874.19"
       cy="764.83002"
       r="9.3199997"
       id="circle119" />
  </g>
  <g
     id="g127"
     transform="translate(-711.81,-156.09)">
    <g
       id="g123">
      <path
         class="cls-23"
         d="m 1191.38,758.74 c 0,0 0,0 0,0.01 v 0 c -2.78,0 -5.03,2.25 -5.03,5.03 v 0 c 0,0 0,0 0,0 0,-2.76 -2.24,-5 -4.99,-5.01 v 0 c 0,0 0,-0.04 0,-0.05 2.75,-0.01 4.97,-2.23 4.99,-4.98 0,0 0,0 0.01,0 0.02,2.75 2.26,4.98 5.02,4.98 h 0.01 z"
         id="path120" />
      <path
         class="cls-23"
         d="m 1186.34,763.79 v 0 c -2.77,0.01 -5.01,2.26 -5.01,5.03 v 0 c 0,0 0,0 0,0 v 0 c 0,-2.77 -2.23,-5.01 -4.99,-5.03 -0.02,0 -0.03,0 -0.03,-0.01 0.01,0 0.02,0 0.03,0 2.75,-0.02 4.97,-2.25 4.98,-4.99 v 0 c 0,0 0.02,0 0.02,0 0,2.76 2.24,5 4.99,5.01 z"
         id="path121" />
      <path
         class="cls-23"
         d="m 1186.34,753.72 c 0,0 0,0.03 0,0.04 -2.75,0.01 -4.97,2.23 -4.99,4.98 0,0 -0.02,0 -0.02,0 v 0 c -0.01,-2.75 -2.25,-4.99 -5,-4.99 v 0 c 0,0 0,-0.02 0,-0.02 0,0 0,0 0,0 2.76,0 5,-2.25 5.01,-5.01 v 0 c 0,2.77 2.24,5.01 5.01,5.02 z"
         id="path122" />
      <path
         class="cls-23"
         d="m 1181.32,758.73 c 0,0 0,0.02 0,0.02 0,0 0,0.02 0,0.02 -2.63,0 -4.8,2.42 -5.01,4.99 -0.2,-2.6 -2.35,-5.03 -5,-5.03 0,0 -0.02,0 -0.03,0 0,0 0,0 0,-0.01 h 0.02 c 2.71,0 4.91,-2.31 5.01,-4.99 0.1,2.68 2.3,4.99 5.01,4.99 z"
         id="path123" />
    </g>
    <path
       class="cls-22"
       d="m 1144.26,738.66 c 0.12,0.13 -0.16,0.29 -0.29,0.18 -1.09,-0.91 -1.9,-2.65 -0.72,-4.11 1.83,-2.26 6.47,-1.25 8.55,-0.8 1.5,0.33 4.26,1.04 5.98,1.49 3.4,0.89 5.96,0.67 8.98,-1.33 0.07,-0.05 0.17,0 0.17,0.09 0,1.45 0.07,10.15 0,14.42 h -0.5 c -0.56,-2.5 -2.1,-2.97 -3.76,-2.34 -4.18,1.59 -8.21,2.34 -12.73,2.34 -4.9,0 -9.32,-1.46 -13.6,-4.94 -6.51,-5.29 -6.53,-14.34 0.67,-19.29 6.44,-4.44 13.69,-5.57 21.24,-3.06 2.32,0.77 2.74,-0.01 3.18,-2.13 h 0.51 l 3.63,10 H 1165 c -3.04,-5.06 -7.64,-8.43 -13.6,-8.39 -6.21,0.04 -11.07,2.4 -14.09,7.7 -3.27,5.72 -1.09,14.37 7.06,18.06 4.93,1.9 9.96,1.48 14.91,0 2.43,-0.94 3.42,-2.78 3.44,-5.61 0,-1.63 -0.02,-4.43 -0.02,-4.43 0,0 -2.41,0.13 -4.32,-0.34 -2.3,-0.57 -4.39,-1.1 -6.64,-1.65 -1.91,-0.37 -4.39,-0.9 -6.11,-0.49 -2.77,0.66 -2.68,3.14 -1.36,4.62 z"
       id="path124" />
    <g
       id="g126">
      <path
         class="cls-22"
         d="m 1168.79,751.19 c -1.2,1.33 -1.96,4.05 -1.94,6.3 v 0 c 0,0 -0.03,9.38 -0.03,9.38 0,0.03 -0.09,1.16 0.46,2 0.82,1.25 2.7,1.37 2.7,1.37 v 0.37 c 0,0 -1.81,-0.4 -4.7,-0.37 -2.51,0.02 -4.98,0.37 -4.98,0.37 v -0.37 c 0,0 1.78,-0.05 2.64,-1.21 0.59,-0.79 0.57,-1.59 0.56,-2.15 -0.03,-2.64 0,-10.58 0,-10.58 0,-0.11 -0.09,-0.15 -0.16,-0.07 l -11.11,11.91 c -0.08,0.08 -0.22,0.03 -0.22,-0.08 V 754.6 c 0,-0.12 -0.15,-0.17 -0.22,-0.07 -4.78,6.39 -7.78,10.36 -10.87,14.16 -3.22,3.97 -6.12,5.19 -9.81,5.46 -2.51,0.19 -4.75,-0.88 -5.55,-1.44 -0.29,-0.21 -0.81,-0.58 -1.01,-1.25 -0.15,-0.51 -0.2,-1.06 0.13,-1.49 0.06,-0.08 0.17,-0.09 0.19,0 0.25,1.38 0.78,1.73 1.48,2.18 0.93,0.6 2.2,1.09 3.31,1.17 1.63,0.12 2.68,0.03 3.57,-0.23 4.8,-1.37 7.68,-5.57 10.05,-8.63 3.47,-4.47 5.37,-6.94 10.26,-13.35 1.29,-1.69 2.73,-3.04 2.61,-3 -0.73,0.24 -4.3,0.56 -6.36,0.53 -3.05,-0.04 -4.45,-0.47 -7.45,-0.69 -2.23,-0.16 -3.29,-0.32 -5.17,0.81 -2.35,1.41 -2.71,5.46 -0.1,7.12 0.1,0.06 0.01,0.22 -0.1,0.2 -1.39,-0.21 -2.24,-2.3 -2.38,-3.2 -0.21,-1.31 0.22,-3.07 1.94,-4.43 2.03,-1.6 5.19,-1.28 8.02,-0.79 2.85,0.49 5.97,0.64 9.37,0.31 2.32,-0.22 5.07,-0.81 6.42,-1.19 0.14,-0.04 0.22,0.16 0.09,0.23 -0.56,0.3 -1.16,0.7 -1.73,1.23 0,0 -0.67,0.61 -1.23,1.41 -1.24,1.77 -2.06,6.75 -1.82,13.32 0,0.11 0.14,0.16 0.21,0.08 0,0 8.98,-8.99 12.4,-12.57"
         id="path125" />
      <path
         class="cls-22"
         d="m 1166.95,753.37 c 2.36,-3.04 5.26,-5.69 8.69,-7.47 3.08,-1.6 6.55,-2.31 10.01,-2.44 1.92,-0.07 4.13,0.17 5.74,1.29 0,0 0.11,-0.74 -0.69,-1.23 -1.63,-0.99 -2.77,-0.88 -4.4,-0.94 -1.63,-0.06 -3.37,0.23 -5.01,0.51 -3.83,0.66 -7.33,2.43 -10.33,4.89 -1.72,1.41 -3.26,3.03 -4.62,4.78 -0.34,0.44 0.27,1.05 0.61,0.61 z"
         id="path126" />
    </g>
  </g>
  <g
     id="g135"
     transform="translate(-711.81,-156.09)">
    <g
       id="g128">
      <path
         class="cls-22"
         d="m 1107.02,758.93 c 0,8.37 -6.6,15.08 -14.75,15.08 -0.81,0 -1.55,-0.02 -2.39,0 7.36,-0.86 13.09,-7.39 13.09,-15.17 0,-7.78 -5.49,-13.87 -12.51,-15.03 0.15,-0.02 0.41,0.04 0.56,0.03 0.35,0 0.7,-0.02 1.04,-0.05 0.07,0 0.14,0 0.2,0 8.15,0 14.76,6.78 14.76,15.15 z"
         id="path127" />
      <path
         class="cls-22"
         d="m 1092.27,774.18 c -0.3,0 -0.58,0 -0.87,0 -0.48,0 -0.98,0 -1.52,0 l -0.02,-0.34 c 7.38,-0.86 12.94,-7.31 12.94,-15.01 0,-7.7 -5.32,-13.69 -12.37,-14.86 l -1.15,-0.19 1.16,-0.14 c 0.1,-0.01 0.22,0 0.33,0.01 0.09,0 0.18,0.02 0.23,0.02 h 0.01 c 0.35,0 0.69,-0.02 1.03,-0.05 h 0.01 c 0.07,0 0.14,0 0.21,0 8.23,0 14.93,6.87 14.93,15.32 0,4.09 -1.55,7.92 -4.37,10.8 -2.81,2.87 -6.56,4.45 -10.55,4.45 z m -0.55,-0.34 c 0.18,0 0.36,0 0.55,0 8.04,0 14.58,-6.69 14.58,-14.91 0,-8.22 -6.55,-14.98 -14.59,-14.98 -0.06,0 -0.13,0 -0.19,0 -0.04,0 -0.07,0 -0.11,0.01 6.47,1.78 11.18,7.92 11.18,14.87 0,3.79 -1.36,7.45 -3.82,10.29 -2.04,2.35 -4.68,3.98 -7.59,4.71 z"
         id="path128" />
    </g>
    <g
       id="g130">
      <path
         class="cls-22"
         d="m 1092.05,743.78 c -0.35,0 -2.14,0 -2.14,0 5.52,-1.07 9.69,-6.29 9.69,-12.27 0,-5.98 -4.14,-10.91 -9.62,-12.01 v -0.11 c 0.32,-0.03 0.64,-0.04 0.97,-0.04 6.59,0 11.93,5.48 11.93,12.24 0,6.38 -4.75,11.62 -10.82,12.19 z"
         id="path129" />
      <path
         class="cls-22"
         d="m 1090.68,743.95 c -0.4,0 -0.74,0 -0.77,0 l -0.03,-0.33 c 5.44,-1.06 9.55,-6.26 9.55,-12.1 0,-5.84 -3.99,-10.74 -9.48,-11.84 l -0.14,-0.03 v -0.41 h 0.15 c 0.32,-0.04 0.65,-0.05 0.98,-0.05 6.67,0 12.09,5.57 12.09,12.41 0,3.11 -1.13,6.09 -3.18,8.38 -2.04,2.28 -4.81,3.69 -7.8,3.97 h -0.01 c -0.2,0 -0.84,0 -1.37,0 z m 0.11,-24.42 c 5.25,1.43 8.98,6.35 8.98,11.99 0,2.92 -1,5.79 -2.81,8.08 -1.52,1.91 -3.51,3.31 -5.72,4.02 0.35,0 0.67,0 0.8,0 6.08,-0.57 10.66,-5.74 10.66,-12.02 0,-6.66 -5.27,-12.07 -11.76,-12.07 -0.05,0 -0.11,0 -0.16,0 z"
         id="path130" />
    </g>
    <path
       class="cls-22"
       d="m 1075.92,731.52 h -0.34 c 0,-3.31 1.26,-6.41 3.54,-8.74 2.28,-2.32 5.32,-3.6 8.55,-3.6 h 0.25 c 0.58,0 1.13,0 1.69,0.09 0.14,0.02 0.28,0.05 0.4,0.07 l -0.07,0.33 c -0.12,-0.02 -0.25,-0.05 -0.39,-0.07 -0.53,-0.09 -1.07,-0.09 -1.63,-0.08 h -0.25 c -6.48,0 -11.76,5.38 -11.76,12 z"
       id="path131" />
    <polygon
       class="cls-22"
       points="1090.08,743.79 1089.74,743.79 "
       id="polygon131" />
    <path
       class="cls-22"
       d="m 1075.92,742.08 h -0.34 v -21.74 q 0,-1.05 0.05,-1.1 c 0,0 0.07,-0.05 0.12,-0.05 h 15.32 v 0.34 h -15.15 c 0,2.06 0,22.33 0,22.55 z"
       id="path132" />
    <rect
       class="cls-22"
       x="1075.86"
       y="773.83002"
       width="15.82"
       height="0.34"
       id="rect132" />
    <rect
       class="cls-22"
       x="1077.46"
       y="743.59998"
       width="16.190001"
       height="0.34"
       transform="rotate(-0.07,1153.6156,794.66078)"
       id="rect133" />
    <g
       id="g133">
      <circle
         class="cls-22"
         cx="1075.76"
         cy="743.78998"
         r="0.62"
         id="circle133" />
      <path
         class="cls-22"
         d="m 1075.76,744.47 c -0.38,0 -0.68,-0.31 -0.68,-0.68 0,-0.37 0.31,-0.68 0.68,-0.68 0.37,0 0.68,0.31 0.68,0.68 0,0.37 -0.31,0.68 -0.68,0.68 z m 0,-1.25 c -0.31,0 -0.57,0.25 -0.57,0.57 0,0.32 0.25,0.57 0.57,0.57 0.32,0 0.57,-0.25 0.57,-0.57 0,-0.32 -0.25,-0.57 -0.57,-0.57 z"
         id="path133" />
    </g>
    <rect
       class="cls-22"
       x="1075.6"
       y="745.5"
       width="0.34"
       height="2.4200001"
       id="rect134" />
    <rect
       class="cls-22"
       x="1071.63"
       y="743.62"
       width="2.4200001"
       height="0.34"
       id="rect135" />
  </g>
  <g
     id="g136"
     transform="translate(-711.81,-156.09)">
    <path
       class="cls-22"
       d="m 764.64,736.38 17.54,-16.89 c 0.12,-0.12 0.23,-0.21 0.33,-0.3 h -35.28 c 0.14,0.11 0.27,0.22 0.41,0.36 l 17,16.84 z"
       id="path135" />
    <path
       class="cls-22"
       d="m 808.68,773 -20.91,-53.01 c -0.08,-0.19 -0.2,-0.36 -0.35,-0.49 -0.04,0.17 -0.13,0.31 -0.24,0.42 l -37.23,37.73 -0.35,-16.82 -20.91,-20.69 c -0.21,-0.14 -0.33,-0.33 -0.39,-0.52 -0.22,0.29 -0.3,0.67 -0.15,1.05 l 20.9,52.97 c 0.13,0.33 0.45,0.55 0.8,0.55 h 58.03 c 0.61,0 1.03,-0.61 0.8,-1.18 z m -38.74,-19.61 -20.37,20.69 0.22,-6.01 15.15,-15.11 c 0.65,-0.65 1.09,-0.87 2.01,-0.87 h 2.39 c 0.6,0 0.87,0.33 0.87,0.65 0,0.27 -0.11,0.49 -0.27,0.65 z m 0,-7.88 -20.37,20.69 0.22,-6.01 15.15,-15.11 c 0.65,-0.65 1.09,-0.87 2.01,-0.87 h 2.39 c 0.6,0 0.87,0.33 0.87,0.65 0,0.27 -0.11,0.49 -0.27,0.65 z"
       id="path136" />
  </g>
  <g
     id="g138"
     transform="translate(-711.81,-156.09)">
    <circle
       class="cls-19"
       cx="899.79999"
       cy="485.32999"
       r="12.5"
       id="circle136" />
    <g
       id="g137">
      <rect
         x="893.29999"
         y="482.89001"
         width="2.6199999"
         height="7.8499999"
         id="rect136" />
      <path
         d="m 897.59,483.36 v 0 c 0,0 1.21,-2.01 2.01,-2.82 0.7,-0.7 0.84,-2.32 0.87,-2.72 0,-0.05 0.05,-0.09 0.1,-0.09 v 0 c 0.76,0 1.38,0.62 1.38,1.38 v 3.11 h 2.73 c 0.9,0 1.63,0.73 1.63,1.63 v 5.26 c 0,0.9 -0.73,1.63 -1.63,1.63 h -7.09 c -0.37,0 -0.67,-0.3 -0.67,-0.67 v -6.04 c 0,-0.37 0.3,-0.67 0.67,-0.67 z"
         id="path137" />
    </g>
  </g>
  <g
     id="g139"
     transform="translate(-711.81,-156.09)">
    <path
       class="cls-19"
       d="m 893.44,645.55 c -6.89,0 -12.5,5.61 -12.5,12.5 0,6.89 5.61,12.5 12.5,12.5 1.15,0 2.27,-0.16 3.33,-0.45 5.04,-1.39 8.81,-5.87 9.14,-11.27 0.02,-0.26 0.03,-0.52 0.03,-0.78 0,-6.89 -5.61,-12.5 -12.5,-12.5 z m 10.05,12.5 c 0,5.11 -3.84,9.35 -8.79,9.97 -0.41,0.05 -0.83,0.08 -1.25,0.08 -5.54,0 -10.05,-4.51 -10.05,-10.05 0,-5.54 4.51,-10.05 10.05,-10.05 4.92,0 9.03,3.56 9.88,8.24 0.11,0.59 0.16,1.19 0.16,1.81 z"
       id="path138" />
    <path
       class="cls-19"
       d="m 900.55,653.48 c -0.72,-0.72 -1.88,-0.72 -2.6,0 l -6.3,6.3 -2.66,-2.66 c -0.72,-0.72 -1.88,-0.72 -2.6,0 -0.72,0.72 -0.72,1.88 0,2.6 l 3.96,3.96 c 0.35,0.35 0.81,0.54 1.3,0.54 0.49,0 0.96,-0.19 1.3,-0.54 l 7.6,-7.6 c 0.72,-0.72 0.72,-1.88 0,-2.6 z"
       id="path139" />
  </g>
  <text
     xml:space="preserve"
     style="line-height:0;text-align:center;text-anchor:middle;fill:#000000"
     x="166.0471"
     y="75.998482"
     id="text95"><tspan
       id="tspan95"
       x="166.0471"
       y="75.998482"
       sodipodi:role="line">t</tspan></text>
  <text
     xml:space="preserve"
     style="font-style:normal;font-variant:normal;font-weight:normal;font-stretch:normal;line-height:0;font-family:raleway, sans-serif;-inkscape-font-specification:'raleway, sans-serif';text-align:start;letter-spacing:-0.2px;text-anchor:start;white-space:pre;inline-size:0;fill:#ffffff"
     x="41.54615"
     y="321.07947"
     id="text101"><tspan
       id="tspan101"
       x="41.54615"
       y="321.07947"
       style="font-style:normal;font-variant:normal;font-weight:800;font-stretch:normal;font-family:raleway, sans-serif;-inkscape-font-specification:'raleway, sans-serif Ultra-Bold'">Exelente trabajo</tspan></text>
</svg>
